<svg id="Calque_1" data-name="Calque 1" xmlns="http://www.w3.org/2000/svg" viewBox="0 0 805.27 561.93">
  <defs>
    <style>
      .cls-1, .cls-2 {
        fill: #fff;
      }

      .cls-2 {
        fill-rule: evenodd;
      }
    </style>
  </defs>
  <title>Logo TEI Blanc-</title>
  <ellipse class="cls-1" cx="18.83" cy="189.14" rx="18.83" ry="17.5"/>
  <ellipse class="cls-1" cx="469.76" cy="127.15" rx="12.4" ry="12.32"/>
  <ellipse class="cls-1" cx="217.78" cy="138.05" rx="21.69" ry="18.75"/>
  <ellipse class="cls-1" cx="189.76" cy="131.47" rx="14.6" ry="10.34"/>
  <ellipse class="cls-1" cx="474" cy="454.47" rx="7.5" ry="7"/>
  <ellipse class="cls-1" cx="459" cy="461.47" rx="12.5" ry="13"/>
  <ellipse class="cls-1" cx="426" cy="446.97" rx="27.5" ry="17.5"/>
  <ellipse class="cls-1" cx="68.67" cy="226.97" rx="27.5" ry="17.5"/>
  <ellipse class="cls-1" cx="66.64" cy="300.73" rx="27.5" ry="17.5" transform="translate(-161.81 -26.51) rotate(-25.07)"/>
  <path class="cls-1" d="M519.85,199.41c-1.47,3.93-6,4.33-10.18.9s-6.33-9.39-4.86-13.32,6-4.33,10.18-.9S521.32,195.48,519.85,199.41Z" transform="translate(-40.64 -83.1)"/>
  <path class="cls-2" d="M617.84,222.17c7.5-6.64,15.8-13.11,25.81-15.33,9.68-2.14,21-2.49,28.47-9.82,3.69-3.63,5.06-8.95,4.54-14s-4.19-9.07-8.27-11.67c-9.36-6-19.54-1.86-28.37,3.17-15.68,8.92-24.62,27.35-26.84,44.64a174.6,174.6,0,0,1,21.31-23.38,58.36,58.36,0,0,1,13-8.5,31.7,31.7,0,0,1,14.27-3.87,56.67,56.67,0,0,1,5.66.42c-19.77,4.33-39.21,15.82-48,34.87l-1.61,3.5" transform="translate(-40.64 -83.1)"/>
  <path class="cls-2" d="M376.22,198.42c-2.71-6.78-34.66-67-21-69.65,14.69-2.83,20,63.57,21,69.65" transform="translate(-40.64 -83.1)"/>
  <path class="cls-2" d="M617.75,531.21c5,8.9,51.12,67.8,32.62,76.42-22.57,10.5-31.22-68.71-32.62-76.42" transform="translate(-40.64 -83.1)"/>
  <ellipse class="cls-1" cx="711.5" cy="269.14" rx="5.5" ry="8.5"/>
  <path class="cls-2" d="M307.33,540.58s-14.54,12.14-16.79,15.11c-3.56,4.69-8.65,11.79-12,19.72-4.05,9.55-4.77,20.14,2.79,26.56,2.06,1.75,3.81,2.27,6.85,2.21a8.8,8.8,0,0,0,6.35-3.26c3.09-4.59,2.54-6.29,2-11.31-0.85-8.17-6.74-13.9-4.59-22.1a44.58,44.58,0,0,1,4.16-11.5C298.5,551.69,307.33,540.58,307.33,540.58Z" transform="translate(-40.64 -83.1)"/>
  <path class="cls-1" d="M207.64,288.08c-4.12-3.55-8.1-7.15-11.9-10.75-25.07-23.71-45.11-51.47-56.74-82.39-7.21-19.18-9.29-43.91,6.82-59.92,15.7-15.59,43.07-10.71,62.51-5,32.06,9.4,60.48,31.19,83.15,52.63,24.8,24.19,45,51.21,56.73,82.4,3.42,9.1,5.68,19.45,5.4,29.53l1.33,0.42a40.83,40.83,0,0,1,22-15,41.28,41.28,0,0,1,19.54-.68c0.23-.24.47-0.47,0.71-0.7-0.07-.32-0.13-0.64-0.19-1C383.31,238.24,353.5,202,323.29,172.5c-0.66-.64-1.4-1.32-2.17-2C291,142.33,257,118.12,217.91,100.42,189.83,87.7,156.87,79.14,125.4,85c-70.55,13-37.61,100-15.87,135.48a356.08,356.08,0,0,0,61.89,74.94,193.85,193.85,0,0,1,30-6.56C203.53,288.53,205.59,288.29,207.64,288.08Z" transform="translate(-40.64 -83.1)"/>
  <path class="cls-1" d="M409.45,270.26A107.59,107.59,0,0,1,401.33,253,112.12,112.12,0,0,1,396,232.35q0.16-1,.34-2a124.9,124.9,0,0,1,4.76-18.52A113.64,113.64,0,0,1,440.44,157a90.17,90.17,0,0,1,60.42-17.88c21.71,1.62,41.69,12.2,56.62,27.77,10.15,10.59,17.61,23.55,22.63,37.28a116.36,116.36,0,0,1,5.32,20.58c-4.89,29.21-20.29,57-43.5,74.63,0,0.36,0,.73,0,1.09a41.9,41.9,0,0,1,12.08,20,57.35,57.35,0,0,1,1.42,6.61l0.37-.4a153.18,153.18,0,0,1,26.5-48.31,123.46,123.46,0,0,0,3.69-17.5c2.43-19.77,1.63-40.21,1-60.06a122.34,122.34,0,0,0-6-34.06c-6.82-20.94-20.08-39.73-38.11-52.45a86.07,86.07,0,0,0-61.42-14.57c-21.57,3-41.06,14.75-55.81,30.47-16.21,17.3-26.13,39.8-29.83,63.07-3.1,19.5-1.91,40-1.53,59.58A134.12,134.12,0,0,0,397,277.61c0.1,0.28.2,0.57,0.3,0.85A41,41,0,0,1,409.45,270.26Zm-14.81-25.71c0.09-1.76.26-3.51,0.43-5.26,0-.42.09-0.84,0.14-1.26C395.78,262.23,394.17,253.71,394.64,244.55Z" transform="translate(-40.64 -83.1)"/>
  <path class="cls-1" d="M397.35,278.46c-0.1-.28-0.2-0.57-0.3-0.85,0.07,0.32.13,0.64,0.19,1Z" transform="translate(-40.64 -83.1)"/>
  <path class="cls-1" d="M802.06,269.77c-0.82-.9-2-2.22-3.54-3.72-1-1.16-2.07-2.29-3.09-3.38-17.77-18.95-41.8-33.45-67.32-38.8-25.77-5.41-50.22-3.46-75.22,4.75-27.42,9-52.13,26.93-70.55,49.76a123.28,123.28,0,0,1-26.5,48.31l-0.29.89a47.7,47.7,0,0,1-6.27,32.16A53,53,0,0,1,574,367.92a57.24,57.24,0,0,1,33.18-15.13,76.29,76.29,0,0,1,8.2-.45c2.12,0,4.19.12,6.23,0.31a153.14,153.14,0,0,1,9.28-12.74A151.35,151.35,0,0,1,701,294.48a127,127,0,0,1,52.42-2.33c3.75,0.88,7.46,1.93,11.11,3.18,2.47,0.84,4.9,1.82,7.3,2.85,1.07,0.46,3.62,1.75,5,2.42,2.76,1.64,5.42,3.45,8,5.34l1.42,1.28c0.45,0.4.87,0.83,1.31,1.25,0.85,1.06,1.74,2.19,2.48,3.15,0.23,0.47.46,0.94,0.68,1.42,0.63,1.75,1.18,3.53,1.71,5.32a110.56,110.56,0,0,1,1.73,11.27c0,0.46.08,0.91,0.12,1.37,0.05,1.93,0,3.86,0,5.79a122.53,122.53,0,0,1-2.66,22.65A145.06,145.06,0,0,1,763.63,414a156.39,156.39,0,0,1-29,25.73,49.09,49.09,0,0,1-14.07,17.15l0,0,0,0a63.45,63.45,0,0,1-32.63,12.79,61.47,61.47,0,0,1-6.62.36,58.6,58.6,0,0,1-6.25-.35,72.58,72.58,0,0,1-3.45,9.61l0,0.05,0,0.05c-8.5,19-24,30.59-43.68,32.74-0.87.09-1.74,0.17-2.61,0.25a134,134,0,0,0,57.39,20.37c24.13,2.75,49.06-2.62,71.18-12.2,41.09-17.81,74.64-56,86.7-99.15C855.28,368.37,839.1,310.36,802.06,269.77Z" transform="translate(-40.64 -83.1)"/>
  <path class="cls-1" d="M582.33,278.38a153.18,153.18,0,0,0-26.5,48.31A123.28,123.28,0,0,0,582.33,278.38Z" transform="translate(-40.64 -83.1)"/>
  <path class="cls-1" d="M566.09,483.33c-1.25-.14-2.49-0.33-3.72-0.59a55.37,55.37,0,0,1-12.11,2.68,56.2,56.2,0,0,1-6,.33,53.61,53.61,0,0,1-18.1-3.15,87.13,87.13,0,0,1,7.5,26.64,109.11,109.11,0,0,1-8,47.11,134.46,134.46,0,0,1-7.86,14.54c-1.81,2.91-3.79,5.71-5.83,8.46l-0.41.54c-0.61.72-2.16,2.61-2.81,3.34-2.38,2.67-4.91,5.21-7.5,7.68l-0.31.28c-0.9.78-2.15,1.84-2.87,2.41-1.22,1-2.47,1.89-3.72,2.81l-0.38.28-1.48.89-3.14,1.55c-1.1.43-2.27,0.87-3.27,1.23l-3,.67-1.57.31-1.06.14c-3.12.34-6.25,0.49-9.38,0.55q-1.94-.11-3.87-0.28A89.88,89.88,0,0,1,451.75,599a82.66,82.66,0,0,1-30-18.09,83.39,83.39,0,0,1-21.23-47.14A105.48,105.48,0,0,1,404,500.32a38.66,38.66,0,0,1-4.2.7,39.27,39.27,0,0,1-4.19.23c-9.2,0-22.44-3.19-34.17-18a46.72,46.72,0,0,1-8.91,14.19,40.05,40.05,0,0,1-16.29,10.69A113.75,113.75,0,0,0,327,557c1,24.15,9.43,45,26.61,62.08,16.44,16.34,39.63,24.72,62.58,25.79,37.13,1.74,72.77-10.24,104.91-28.12,27.67-15.39,52.9-38.39,68.79-66a132,132,0,0,0,14.9-39.27C587.63,508.24,574.16,498.52,566.09,483.33ZM470.32,602c-1.92,0-4.93-.16,0,0h0Zm14.4-1.21c-0.53.09-1.49,0.25-2.44,0.4l2.52-.42Z" transform="translate(-40.64 -83.1)"/>
  <path class="cls-1" d="M291.14,512.95a38.9,38.9,0,0,1-16.1-3.55,65.38,65.38,0,0,1-25.3,7.9,61.55,61.55,0,0,1-6.6.36,59.48,59.48,0,0,1-38-13.94,61.17,61.17,0,0,1-22.28-41.47,63,63,0,0,1,12.42-45.55l0,0,0,0a66.07,66.07,0,0,1,5.79-6.67,59.65,59.65,0,0,1-10.49-3.61c-13.1-6-22.6-17.52-26.74-32.42a54.46,54.46,0,0,1,1-33.18c3.44-9.58,9.6-18.31,18.28-25.94,11.36-10,26.26-17.63,44.3-22.65A160.2,160.2,0,0,1,246.84,288a190.15,190.15,0,0,0-39.2.09c1.81,1.56,3.64,3.12,5.5,4.65,2.5,2.06-28.86,14.09-34.26,9.37-2.52-2.21-5-4.46-7.46-6.72C102.87,316.2,56.84,372.74,64.94,431.86c9.24,67.41,85.34,112.66,170,101.05a187.14,187.14,0,0,0,64-20.75c-1.17.23-2.35,0.42-3.56,0.55A39.21,39.21,0,0,1,291.14,512.95Z" transform="translate(-40.64 -83.1)"/>
  <path class="cls-1" d="M213.14,292.73c-1.87-1.54-3.69-3.09-5.5-4.65-2.05.22-4.11,0.45-6.17,0.73a193.85,193.85,0,0,0-30,6.56c2.45,2.27,4.93,4.52,7.46,6.72C184.28,306.82,215.64,294.79,213.14,292.73Z" transform="translate(-40.64 -83.1)"/>
  <g>
    <path class="cls-1" d="M270.93,466.3q0.91,8.37-6.92,14.5a33.88,33.88,0,0,1-17.5,6.67q-12.29,1.33-22.36-6.92A31.19,31.19,0,0,1,212.64,459a32.91,32.91,0,0,1,6.54-24.24q8-10.56,20.32-11.92a32.7,32.7,0,0,1,18.55,3.06q9,4.58,9.92,13.13,0.75,6.94-3.16,10.6-2.36,2.12-9.24,4.46a34.79,34.79,0,0,1-7.57,1.69,73.88,73.88,0,0,1-8,.37q0.59,5.47,4.85,5a14.91,14.91,0,0,0,5.3-1.65c1.75-.91,3.51-1.84,5.3-2.84a7.91,7.91,0,0,1,2.4-.62,12.64,12.64,0,0,1,7.93,1.59C268.79,459.48,270.5,462.34,270.93,466.3Zm-24.21-25.7c-0.25-2.31-1.63-3.33-4.15-3.06s-3.77,1.58-3.52,3.89a2.94,2.94,0,0,0,1.4,2.11,4.09,4.09,0,0,0,2.85.69,3.85,3.85,0,0,0,2.57-1.28A3,3,0,0,0,246.72,440.6Z" transform="translate(-40.64 -83.1)"/>
    <path class="cls-1" d="M335.89,447.72q1.33,12.3-1.17,21.07-3,10.66-10.7,11.5-5.84.64-10.45-6.74a31.56,31.56,0,0,1-4.83-13.88c0-.42-0.08-1.15-0.12-2.21s-0.19-1.74-.25-2.31q-0.69-6.43-3.49-6.14c-1.79.19-2.47,2.27-2,6.25,0.05,0.48.14,1.3,0.26,2.43s0.21,2,.28,2.56a28,28,0,0,1-2.1,14.5q-3.23,7.49-9.17,8.14-7.51.81-12.07-10.75Q276,461.74,273.5,439q-1.23-11.33,4.74-16.52,4.39-3.8,13.63-4.81c1.46-.16,3.5-0.31,6.11-0.47s4.36-.29,5.25-0.39Q332.19,413.66,335.89,447.72Z" transform="translate(-40.64 -83.1)"/>
    <path class="cls-1" d="M409.91,437.8q1.45,13.36-3,23.42-4.16,9.29-10.36,10t-12.41-7.62q-6.26-8.92-7.69-22.15-1.48-13.61,1.38-22.52,3.3-10.31,11.83-11.24Q406.45,405.85,409.91,437.8Zm-8.81-49.46a13.47,13.47,0,0,1-26.78,2.9,13.14,13.14,0,0,1,2.93-9.91,13.14,13.14,0,0,1,18.86-2A13.15,13.15,0,0,1,401.1,388.33Z" transform="translate(-40.64 -83.1)"/>
    <path class="cls-1" d="M509.61,428.46q1.32,12.19-1.16,21.1-3,10.57-10.83,11.41-5.83.63-10.32-6.64a31.59,31.59,0,0,1-4.82-13.88l-0.21-1.95L482,436.31q-0.75-6.94-3.66-6.62c-1.13.13-1.61,1-1.42,2.73q1.33,12.31-1.15,21.07-3,10.67-10.65,11.5-5.82.63-10.42-6.75a31.63,31.63,0,0,1-4.82-13.88c0-.41-0.08-1.15-0.11-2.21l-0.25-2.31q-0.7-6.44-3.5-6.14t-2,6.25c0.05,0.48.14,1.3,0.27,2.44l0.28,2.55a28,28,0,0,1-2.1,14.5q-3.23,7.49-9.17,8.14-7.51.82-12.08-10.75-4.07-10.41-6.53-33.16-1.23-11.32,4.73-16.52,4.39-3.79,13.63-4.8c1.46-.16,3.49-0.32,6.11-0.47s4.35-.29,5.25-0.39q9-1,15.59,1.88,5.91-4.58,15.52-5.63Q505.92,394.44,509.61,428.46Z" transform="translate(-40.64 -83.1)"/>
    <path class="cls-1" d="M579.34,437.94q1,9.25-2.76,13.11a8.14,8.14,0,0,1-4.9,2.5q-5,.54-11.07-4.34-5.07,5.47-13.59,6.39-11.19,1.21-20.55-7.25t-10.82-22.09q-1.53-14.12,5.63-24.68t18.6-11.8q12.66-1.38,20,5,4.87,4.15,10.58,15.84Q578.05,426.14,579.34,437.94Zm-29.83-16.21a4.54,4.54,0,0,0-1.88-3.06,5.35,5.35,0,0,0-4.11-1.09,5.74,5.74,0,0,0-3.74,1.82,4.4,4.4,0,0,0-1.22,3.52,4,4,0,0,0,2,3,5.85,5.85,0,0,0,4,.91,5.75,5.75,0,0,0,3.68-1.8A4,4,0,0,0,549.51,421.73Z" transform="translate(-40.64 -83.1)"/>
    <path class="cls-1" d="M646.21,422.25l1.44,13.28q2.07,19-3.57,31.7-6.15,13.73-19.53,15.18-23.63,2.56-32-13.15a28.69,28.69,0,0,1-1.86-6.93q-1-9.51,10.54-10.75a50.53,50.53,0,0,1,10.18.18c4.11,0.42,6.25.61,6.41,0.59,0.4,0,.58-0.38.5-1a23.35,23.35,0,0,0-.92-4q-12.18,1.31-22.25-7a31.2,31.2,0,0,1-11.52-21.56,33,33,0,0,1,6.54-24.28q8-10.61,20.2-11.93,21.52-2.33,29.54,14.79Q644.58,407.25,646.21,422.25Zm-24.29-8.44a4.68,4.68,0,0,0-1.89-3.11,5.38,5.38,0,0,0-4.12-1.12,5.67,5.67,0,0,0-3.74,1.85A4.39,4.39,0,0,0,611,415a4.08,4.08,0,0,0,2,3,5.9,5.9,0,0,0,4,.93,5.76,5.76,0,0,0,3.69-1.83A4.16,4.16,0,0,0,621.91,413.81Z" transform="translate(-40.64 -83.1)"/>
    <path class="cls-1" d="M709,418.78q0.91,8.37-6.93,14.49a33.79,33.79,0,0,1-17.48,6.67q-12.29,1.34-22.37-6.92a31.16,31.16,0,0,1-11.5-21.53,32.85,32.85,0,0,1,6.54-24.24q8-10.58,20.32-11.93a32.61,32.61,0,0,1,18.54,3.07q9,4.58,9.92,13.13c0.5,4.63-.56,8.17-3.16,10.6q-2.35,2.11-9.25,4.46a34.87,34.87,0,0,1-7.57,1.69,74.83,74.83,0,0,1-8,.37c0.39,3.64,2,5.33,4.84,5a14.74,14.74,0,0,0,5.3-1.65c1.75-.91,3.52-1.85,5.3-2.84a7.7,7.7,0,0,1,2.39-.62,12.63,12.63,0,0,1,7.93,1.6C706.84,412,708.56,414.82,709,418.78Zm-24.2-25.7c-0.25-2.32-1.64-3.34-4.15-3.07s-3.77,1.58-3.52,3.89a2.94,2.94,0,0,0,1.39,2.11,4.12,4.12,0,0,0,2.86.7,3.9,3.9,0,0,0,2.57-1.28A3,3,0,0,0,684.79,393.09Z" transform="translate(-40.64 -83.1)"/>
  </g>
  <g>
    <path class="cls-1" d="M297.2,333.49q2.67,9.6-1.45,17.34-3.53,6.47-14.54,16,14.91,53.53-10.73,60.67-17.78,5-30.54-11.55-9-11.44-14.74-32.11-16.61-2.12-22-4.68-7.72-3.49-10.44-13.24-4.38-15.71,10.25-28.56,12-10.55,32.52-16.27,21.11-5.88,37.49-4Q293.27,319.39,297.2,333.49Z" transform="translate(-40.64 -83.1)"/>
    <path class="cls-1" d="M372.4,353.81q4.55,16.31-2.24,30.29T350,401.8q-13.42,3.73-26.5-4.7t-17.66-24.75q-4.7-16.88,1.91-31.21T328,323q13.55-3.77,26.6,5.06T372.4,353.81ZM346,360.06a5.61,5.61,0,0,0-2.89-3.36,6.64,6.64,0,0,0-5.24-.5,6.8,6.8,0,0,0-4,2.93,5.4,5.4,0,0,0-.79,4.53,5.14,5.14,0,0,0,2.94,3.19,6.87,6.87,0,0,0,5,.41,7.13,7.13,0,0,0,4.13-2.95A5,5,0,0,0,346,360.06Z" transform="translate(-40.64 -83.1)"/>
    <path class="cls-1" d="M451.24,329.18q11.32,40.63-25.09,50.78-35.82,10-47.76-32.84-3.81-13.68-3-23.5,1.08-12.38,9.63-14.77,7.11-2,14.25,5.12a34.76,34.76,0,0,1,9.05,15.7l0.82,2.91,0.85,3.06q2,7.13,5.12,6.26c2.18-.61,2.57-3.49,1.12-8.64-0.19-.67-0.45-1.59-0.77-2.76s-0.59-2.14-.73-2.62a40.1,40.1,0,0,1-.86-18.29q2-10.44,9-12.38,9.18-2.55,17.5,8.15Q447.14,314.48,451.24,329.18Z" transform="translate(-40.64 -83.1)"/>
    <path class="cls-1" d="M525.15,328.53q5.76,20.68-22.79,28.63-12,3.33-21.84-1.76-17.45-9.11-26.87-42.9-7.3-26.23-2.87-37.34,2.44-6.49,10.59-8.75c5.26-1.47,9.63-1,13.15,1.52,2.09,1.51,4.28,4.29,6.56,8.37q3.08,5.41,4.6,5.79c3.93-.15,7.9-0.38,11.9-0.66q10.05,1.14,13.17,12.35,4.79,17.2-8.89,21c-0.79.22-1.91,0.45-3.42,0.71s-2.54.47-3.12,0.63q-3.2.88-2.67,2.79c0.84,3,3.7,4.14,8.63,3.4q13.37-2.15,13.84-2.14C520.32,320.41,523.67,323.18,525.15,328.53Z" transform="translate(-40.64 -83.1)"/>
  </g>
</svg>
